<?xml version="1.0" encoding="UTF-8"?>
<svg id="katman_2" data-name="katman 2" xmlns="http://www.w3.org/2000/svg" viewBox="0 0 1940.5 1020">
  <defs>
    <style>
      .cls-1 {
        font-family: WireOne-Regular, 'Wire One';
        font-size: 315.97px;
      }

      .cls-1, .cls-2, .cls-3, .cls-4 {
        fill: #fff;
      }

      .cls-1, .cls-2, .cls-4 {
        stroke: #fff;
        stroke-miterlimit: 10;
      }

      .cls-5 {
        font-family: Buffalo-Regular, Buffalo;
      }

      .cls-6 {
        font-family: antre, antre;
      }

      .cls-7 {
        letter-spacing: .29em;
      }

      .cls-8 {
        letter-spacing: .29em;
      }

      .cls-9 {
        letter-spacing: .3em;
      }

      .cls-10 {
        letter-spacing: .3em;
      }

      .cls-3 {
        stroke-width: 0px;
      }

      .cls-4 {
        font-size: 658.27px;
      }
    </style>
  </defs>
  <g id="katman_1" data-name="katman 1">
    <g>
      <text class="cls-4" transform="translate(139.57 625.85) scale(1.05 1)"><tspan class="cls-6" x="0" y="0">CUK</tspan><tspan class="cls-5" x="1190.13" y="0" xml:space="preserve">    </tspan></text>
      <text class="cls-1" transform="translate(88.64 846.54) scale(1.12 1)"><tspan class="cls-9" x="0" y="0">c</tspan><tspan class="cls-8" x="177.89" y="0">r</tspan><tspan class="cls-9" x="328.28" y="0">e</tspan><tspan class="cls-7" x="508.7" y="0">a</tspan><tspan class="cls-10" x="688.49" y="0">tive</tspan></text>
      <path class="cls-2" d="m223.5,225.76l-27.87-49.52c-1.08-2.03-2.84-4.15-4.69-5.65-9.26-7.54-23.82-7.68-32.02.58-8.2,8.25-8.12,21.4,1.15,28.94l44.88,38.11c3.71,3.01,9.15,3.77,13.6,1.88,5.91-2.31,7.61-8.96,4.96-14.33h0Z"/>
      <path class="cls-2" d="m1467.32,609.99l39.16,40.74c1.55,1.68,3.75,3.29,5.87,4.28,10.62,4.97,24.15,1.53,29.53-8.41,5.38-9.94,1.77-22.55-8.85-27.52l-51.85-25.61c-4.25-1.99-9.49-1.37-13.11,1.53-4.85,3.67-4.65,10.47-.74,14.98h0Z"/>
      <path class="cls-2" d="m1396.76,234.67l45.28-31.66c1.86-1.25,3.7-3.07,4.9-4.87,5.98-8.99,3.47-21.09-6.41-26.48-9.88-5.38-23.23-3.05-29.21,5.94l-30.58,43.81c-2.39,3.59-2.16,8.24.56,11.61,3.43,4.5,10.49,4.78,15.47,1.65h0Z"/>
      <path class="cls-3" d="m69.96,601.35l-55.03,17.33c-2.24.66-4.68,1.91-6.5,3.35-9.11,7.19-11.37,20.37-4.07,29.13,7.3,8.76,20.84,10.79,29.96,3.59l45.77-34.58c3.64-2.88,5.21-7.69,3.92-12.03-1.52-5.73-8.11-8.34-14.03-6.79h0Z"/>
    </g>
  </g>
</svg>